<svg xmlns="http://www.w3.org/2000/svg" width="1600" height="930" viewBox="0 0 1600 930">
<rect width="100%" height="100%" fill="white"/>
<style>
.title{font:700 46px Inter,Arial,sans-serif;fill:#0B2A5B}.sub{font:italic 24px Inter,Arial,sans-serif;fill:#475569}
.h{font:700 22px Inter,Arial,sans-serif;fill:#0B2A5B}.ht{font:700 20px Inter,Arial,sans-serif;fill:#0F8B8D}
.t{font:16px Inter,Arial,sans-serif;fill:#172033}.s{font:14px Inter,Arial,sans-serif;fill:#475569}.n{font:700 18px Inter,Arial,sans-serif;fill:white}
.panel{fill:white;stroke:#D8E2EF;stroke-width:2}.core{fill:white;stroke:#1E5DBB;stroke-width:3}.small{fill:#F8FBFF;stroke:#D8E2EF;stroke-width:1.5}
</style>
<text x="800" y="62" text-anchor="middle" class="title">Hybrid Rubik Cube Solver Architecture</text>
<text x="800" y="102" text-anchor="middle" class="sub">Discrete–continuous search from scrambled state to solved state</text>
<line x1="220" y1="96" x2="390" y2="96" stroke="#0F8B8D" stroke-width="2"/><circle cx="220" cy="96" r="5" fill="#0F8B8D"/>
<line x1="1210" y1="96" x2="1380" y2="96" stroke="#0F8B8D" stroke-width="2"/><circle cx="1380" cy="96" r="5" fill="#0F8B8D"/>
<rect x="35" y="155" width="205" height="600" rx="24" class="panel"/><circle cx="137.5" cy="185" r="22" fill="#0B2A5B"/><text x="137.5" y="192" text-anchor="middle" class="n">1</text><text x="137.5" y="235" text-anchor="middle" class="h">Inputs</text>
<rect x="285" y="155" width="205" height="600" rx="24" class="panel"/><circle cx="387.5" cy="185" r="22" fill="#0F8B8D"/><text x="387.5" y="192" text-anchor="middle" class="n">2</text><text x="387.5" y="235" text-anchor="middle" class="ht">State Encoding</text>
<rect x="535" y="155" width="205" height="600" rx="24" class="panel"/><circle cx="637.5" cy="185" r="22" fill="#0F8B8D"/><text x="637.5" y="192" text-anchor="middle" class="n">3</text><text x="637.5" y="235" text-anchor="middle" class="ht">Feature Analysis</text>
<rect x="785" y="155" width="280" height="600" rx="24" class="core"/><circle cx="925" cy="185" r="22" fill="#0B2A5B"/><text x="925" y="192" text-anchor="middle" class="n">4</text><text x="925" y="235" text-anchor="middle" class="h">Hybrid Search Core</text>
<rect x="1110" y="155" width="205" height="600" rx="24" class="panel"/><circle cx="1212.5" cy="185" r="22" fill="#0F8B8D"/><text x="1212.5" y="192" text-anchor="middle" class="n">5</text><text x="1212.5" y="235" text-anchor="middle" class="ht">Exploration & Selection</text>
<rect x="1360" y="155" width="205" height="600" rx="24" class="panel"/><circle cx="1462.5" cy="185" r="22" fill="#0B2A5B"/><text x="1462.5" y="192" text-anchor="middle" class="n">6</text><text x="1462.5" y="235" text-anchor="middle" class="h">Outputs</text>
<line x1="250" y1="455" x2="275" y2="455" stroke="#0B2A5B" stroke-width="4"/><polygon points="275,455 264,448 264,462" fill="#0B2A5B"/>
<line x1="500" y1="455" x2="525" y2="455" stroke="#0B2A5B" stroke-width="4"/><polygon points="525,455 514,448 514,462" fill="#0B2A5B"/>
<line x1="750" y1="455" x2="775" y2="455" stroke="#0B2A5B" stroke-width="4"/><polygon points="775,455 764,448 764,462" fill="#0B2A5B"/>
<line x1="1080" y1="455" x2="1105" y2="455" stroke="#0B2A5B" stroke-width="4"/><polygon points="1105,455 1094,448 1094,462" fill="#0B2A5B"/>
<line x1="1330" y1="455" x2="1355" y2="455" stroke="#0B2A5B" stroke-width="4"/><polygon points="1355,455 1344,448 1344,462" fill="#0B2A5B"/>
<text x="138" y="280" text-anchor="middle" class="t">Scrambled Cube State</text>
<polygon points="72,335 127,308 182,335 127,362" fill="#f5f7fb" stroke="#0B2A5B" stroke-width="2"/>
<polygon points="72,335 127,362 127,422 72,394" fill="#ffd84d" stroke="#0B2A5B" stroke-width="2"/>
<polygon points="127,362 182,335 182,394 127,422" fill="#36b37e" stroke="#0B2A5B" stroke-width="2"/>
<rect x="86" y="324" width="24" height="20" rx="2" fill="#e44747" stroke="white"/><rect x="114" y="324" width="24" height="20" rx="2" fill="#2f73d9" stroke="white"/><rect x="141" y="332" width="24" height="20" rx="2" fill="#f59e0b" stroke="white"/>
<text x="138" y="500" text-anchor="middle" class="t">Cube-state representation</text><text x="138" y="545" text-anchor="middle" class="t">Solver settings</text><text x="138" y="585" text-anchor="middle" class="t">Optional constraints</text>
<text x="388" y="300" text-anchor="middle" class="t">Cubie position encoding</text><rect x="320" y="325" width="136" height="88" rx="8" class="small"/>
<rect x="360" y="345" width="18" height="18" fill="#ffd84d" stroke="#0B2A5B"/><rect x="340" y="365" width="18" height="18" fill="#e44747" stroke="#0B2A5B"/><rect x="360" y="365" width="18" height="18" fill="#ffffff" stroke="#0B2A5B"/><rect x="380" y="365" width="18" height="18" fill="#36b37e" stroke="#0B2A5B"/><rect x="400" y="365" width="18" height="18" fill="#2f73d9" stroke="#0B2A5B"/><rect x="360" y="385" width="18" height="18" fill="#f59e0b" stroke="#0B2A5B"/>
<text x="388" y="468" text-anchor="middle" class="t">Orientation encoding</text><circle cx="350" cy="510" r="22" fill="none" stroke="#0F8B8D" stroke-width="3"/><circle cx="388" cy="510" r="22" fill="none" stroke="#0F8B8D" stroke-width="3"/><circle cx="426" cy="510" r="22" fill="none" stroke="#0F8B8D" stroke-width="3"/>
<text x="388" y="585" text-anchor="middle" class="t">Compact state vector</text><rect x="340" y="610" width="25" height="20" fill="#0f8b8d"/><rect x="365" y="610" width="25" height="20" fill="#38b2ac"/><rect x="390" y="610" width="25" height="20" fill="#cbd5e1"/><rect x="415" y="610" width="25" height="20" fill="#e2e8f0"/>
<text x="638" y="300" text-anchor="middle" class="t">Displacement scores</text>
<rect x="568" y="330" width="19" height="19" fill="#1fa96f"/><rect x="588" y="330" width="19" height="19" fill="#54bf74"/><rect x="608" y="330" width="19" height="19" fill="#a7cf5b"/><rect x="628" y="330" width="19" height="19" fill="#f6d447"/><rect x="648" y="330" width="19" height="19" fill="#f39a3b"/><rect x="668" y="330" width="19" height="19" fill="#e34b3f"/>
<rect x="568" y="350" width="19" height="19" fill="#1fa96f"/><rect x="588" y="350" width="19" height="19" fill="#54bf74"/><rect x="608" y="350" width="19" height="19" fill="#a7cf5b"/><rect x="628" y="350" width="19" height="19" fill="#f6d447"/><rect x="648" y="350" width="19" height="19" fill="#f39a3b"/><rect x="668" y="350" width="19" height="19" fill="#e34b3f"/>
<rect x="568" y="370" width="19" height="19" fill="#54bf74"/><rect x="588" y="370" width="19" height="19" fill="#a7cf5b"/><rect x="608" y="370" width="19" height="19" fill="#f6d447"/><rect x="628" y="370" width="19" height="19" fill="#f39a3b"/><rect x="648" y="370" width="19" height="19" fill="#e34b3f"/><rect x="668" y="370" width="19" height="19" fill="#e34b3f"/>
<rect x="568" y="390" width="19" height="19" fill="#54bf74"/><rect x="588" y="390" width="19" height="19" fill="#a7cf5b"/><rect x="608" y="390" width="19" height="19" fill="#f6d447"/><rect x="628" y="390" width="19" height="19" fill="#f39a3b"/><rect x="648" y="390" width="19" height="19" fill="#e34b3f"/><rect x="668" y="390" width="19" height="19" fill="#e34b3f"/>
<rect x="568" y="410" width="19" height="19" fill="#a7cf5b"/><rect x="588" y="410" width="19" height="19" fill="#f6d447"/><rect x="608" y="410" width="19" height="19" fill="#f39a3b"/><rect x="628" y="410" width="19" height="19" fill="#e34b3f"/><rect x="648" y="410" width="19" height="19" fill="#e34b3f"/><rect x="668" y="410" width="19" height="19" fill="#e34b3f"/>
<text x="638" y="475" text-anchor="middle" class="t">Pattern signatures</text><text x="638" y="590" text-anchor="middle" class="t">Heuristics & cost estimates</text><path d="M595 655 A43 43 0 0 1 681 655" fill="none" stroke="#0B2A5B" stroke-width="6"/><line x1="638" y1="655" x2="665" y2="628" stroke="#D64545" stroke-width="4"/>
<rect x="810" y="270" width="230" height="200" rx="16" fill="#fbfdff" stroke="#1E5DBB" stroke-width="2"/><rect x="810" y="270" width="230" height="42" rx="14" fill="#0B2A5B"/><text x="925" y="298" text-anchor="middle" class="n">Discrete Move Search</text>
<line x1="845" y1="350" x2="880" y2="330" stroke="#1E5DBB" stroke-width="2"/><line x1="880" y1="330" x2="915" y2="365" stroke="#1E5DBB" stroke-width="2"/><line x1="915" y1="365" x2="950" y2="340" stroke="#1E5DBB" stroke-width="2"/><line x1="950" y1="340" x2="990" y2="360" stroke="#1E5DBB" stroke-width="2"/>
<circle cx="845" cy="350" r="7" fill="#13A36F" stroke="#1E5DBB" stroke-width="2"/><circle cx="880" cy="330" r="7" fill="#d9e7fa" stroke="#1E5DBB" stroke-width="2"/><circle cx="915" cy="365" r="7" fill="#d9e7fa" stroke="#1E5DBB" stroke-width="2"/><circle cx="950" cy="340" r="7" fill="#d9e7fa" stroke="#1E5DBB" stroke-width="2"/><circle cx="990" cy="360" r="7" fill="#D64545" stroke="#1E5DBB" stroke-width="2"/>
<text x="830" y="405" class="s">• Legal move sequences</text><text x="830" y="430" class="s">• Pruning & heuristics</text><text x="830" y="455" class="s">• Candidate ranking</text>
<rect x="810" y="495" width="230" height="215" rx="16" fill="#fbfdff" stroke="#1E5DBB" stroke-width="2"/><rect x="810" y="495" width="230" height="42" rx="14" fill="#0B2A5B"/><text x="925" y="523" text-anchor="middle" class="n">Continuous Refinement</text>
<ellipse cx="925" cy="590" rx="50" ry="12" fill="none" stroke="#b7cdf0" stroke-width="2"/><ellipse cx="925" cy="590" rx="67" ry="21" fill="none" stroke="#b7cdf0" stroke-width="2"/><ellipse cx="925" cy="590" rx="85" ry="30" fill="none" stroke="#b7cdf0" stroke-width="2"/><ellipse cx="925" cy="590" rx="103" ry="39" fill="none" stroke="#b7cdf0" stroke-width="2"/>
<path d="M850 610 C885 590 915 605 950 570 C980 545 1000 560 1015 575" fill="none" stroke="#0B2A5B" stroke-width="4"/>
<text x="830" y="650" class="s">• Energy / cost surface</text><text x="830" y="675" class="s">• Local optimization</text><text x="830" y="700" class="s">• Fine candidate adjustment</text>
<text x="1212" y="300" text-anchor="middle" class="t">Exploration in search space</text><ellipse cx="1210" cy="415" rx="28" ry="18" fill="none" stroke="#c6d9f4" stroke-width="2"/><ellipse cx="1210" cy="415" rx="45" ry="29" fill="none" stroke="#c6d9f4" stroke-width="2"/><ellipse cx="1210" cy="415" rx="62" ry="40" fill="none" stroke="#c6d9f4" stroke-width="2"/><ellipse cx="1210" cy="415" rx="80" ry="52" fill="none" stroke="#c6d9f4" stroke-width="2"/>
<path d="M1155 470 C1170 445 1182 455 1192 430 C1205 398 1232 402 1250 360" fill="none" stroke="#13A36F" stroke-width="4"/><path d="M1155 470 C1175 490 1195 475 1210 500" fill="none" stroke="#D64545" stroke-width="3" stroke-dasharray="7 6"/><path d="M1155 470 C1180 435 1202 450 1220 420 C1240 390 1260 410 1270 380" fill="none" stroke="#7f8ea3" stroke-width="3" stroke-dasharray="7 6"/>
<text x="1160" y="555" class="s">● Accepted path</text><text x="1160" y="582" class="s">● Explored alternatives</text><text x="1160" y="640" class="t">Best candidate selection</text><text x="1160" y="680" class="t">Constraint satisfaction</text>
<text x="1462" y="300" text-anchor="middle" class="t">Solved Cube State</text><polygon points="1410,370 1460,345 1510,370 1460,395" fill="#2f73d9" stroke="#0B2A5B" stroke-width="2"/><polygon points="1410,370 1460,395 1460,450 1410,425" fill="#e44747" stroke="#0B2A5B" stroke-width="2"/><polygon points="1460,395 1510,370 1510,425 1460,450" fill="#36b37e" stroke="#0B2A5B" stroke-width="2"/>
<rect x="1400" y="500" width="125" height="38" rx="7" fill="white" stroke="#D8E2EF"/><text x="1462" y="525" text-anchor="middle" class="t">R U R′ U′ F2 …</text><text x="1462" y="570" text-anchor="middle" class="t">Solution sequence</text><text x="1462" y="630" text-anchor="middle" class="t">Performance metrics</text><text x="1462" y="690" text-anchor="middle" class="t">Optional report</text>
<rect x="55" y="790" width="1490" height="105" rx="22" fill="#fbfdff" stroke="#1E5DBB" stroke-width="2"/><text x="95" y="835" class="h">Applications</text><text x="95" y="868" class="t">Robotics & motion planning  •  Logistics & scheduling  •  Legal/compliance workflow optimization  •  Manufacturing & assembly planning</text><text x="95" y="892" class="t">Network reconfiguration  •  Scientific transition-path problems</text>
</svg>
